<svg width="20" height="21" viewBox="0 0 20 21" fill="none" xmlns="http://www.w3.org/2000/svg">
<path d="M16.3635 4.84261C15.1767 4.28736 13.9078 3.88383 12.5811 3.65405C12.4182 3.94862 12.2279 4.34481 12.0966 4.65998C10.6864 4.4479 9.28912 4.4479 7.90481 4.65998C7.7736 4.34481 7.57894 3.94862 7.41455 3.65405C6.08649 3.88383 4.8161 4.28884 3.62935 4.84555C1.23567 8.46272 0.586782 11.99 0.911227 15.4673C2.49884 16.6529 4.03744 17.3731 5.55006 17.8444C5.92354 17.3304 6.25663 16.784 6.54358 16.2081C5.99707 16.0004 5.47364 15.7442 4.97906 15.4467C5.11027 15.3495 5.23861 15.2478 5.36261 15.1433C8.37922 16.5542 11.6568 16.5542 14.6374 15.1433C14.7629 15.2478 14.8912 15.3495 15.021 15.4467C14.5249 15.7456 14.0001 16.0019 13.4536 16.2096C13.7405 16.784 14.0722 17.3319 14.4471 17.8458C15.9611 17.3745 17.5012 16.6544 19.0888 15.4673C19.4695 11.4363 18.4385 7.94135 16.3635 4.84261ZM6.95455 13.3288C6.04899 13.3288 5.30637 12.4834 5.30637 11.4539C5.30637 10.4245 6.03314 9.57762 6.95455 9.57762C7.87599 9.57762 8.61859 10.423 8.60273 11.4539C8.60417 12.4834 7.87599 13.3288 6.95455 13.3288ZM13.0455 13.3288C12.1399 13.3288 11.3973 12.4834 11.3973 11.4539C11.3973 10.4245 12.124 9.57762 13.0455 9.57762C13.9669 9.57762 14.7095 10.423 14.6937 11.4539C14.6937 12.4834 13.9669 13.3288 13.0455 13.3288Z" fill="#E7E7E7"/>
</svg>
