<svg width="20" height="20" viewBox="0 0 20 20" fill="none" xmlns="http://www.w3.org/2000/svg">
<path fill-rule="evenodd" clip-rule="evenodd" d="M12.982 17.61C13.436 16.91 13.891 16.01 14.218 14.855C14.973 15.145 15.491 15.491 15.809 15.764C14.9944 16.5731 14.0185 17.2018 12.945 17.609H12.982V17.61ZM4.182 15.755C4.518 15.482 5.027 15.145 5.782 14.845C6.118 16.009 6.555 16.909 7.018 17.609C5.96033 17.193 5.0007 16.5616 4.2 15.755H4.182ZM14.818 9.091C14.79 8.281 14.708 7.472 14.573 6.673C15.573 6.309 16.3 5.873 16.809 5.473C17.5188 6.55949 17.9583 7.80001 18.091 9.091H14.818ZM5.845 4.891C5.31584 4.69604 4.81716 4.42666 4.364 4.091C5.13042 3.35805 6.03173 2.78072 7.018 2.391C6.591 3.027 6.173 3.845 5.836 4.891H5.846H5.845ZM12.982 2.391C13.9689 2.77946 14.8705 3.35694 15.636 4.091C15.1823 4.42582 14.6838 4.69513 14.155 4.891C13.884 4.00489 13.4858 3.16278 12.973 2.391H12.982ZM12.8 7.118C12.89 7.718 12.982 8.364 13 9.091H7C7.027 8.364 7.09 7.709 7.182 7.118C9.037 7.452 10.936 7.452 12.791 7.118H12.8ZM10 5.545C9.09 5.545 8.29 5.473 7.61 5.364C8.336 3.127 9.464 2.227 10 1.909C10.518 2.227 11.655 3.136 12.382 5.364C11.5941 5.48739 10.7975 5.54792 10 5.545ZM3.182 5.473C3.86177 5.98982 4.61962 6.39491 5.427 6.673C5.29204 7.47271 5.2102 8.28047 5.182 9.091H1.872C2.01558 7.79677 2.46793 6.55597 3.191 5.473H3.182ZM1.882 10.909H5.182C5.218 11.691 5.272 12.409 5.382 13.064C4.54444 13.3517 3.76292 13.782 3.072 14.336C2.41813 13.299 2.00785 12.1273 1.872 10.909H1.882ZM10 12.364C8.91 12.364 7.973 12.454 7.155 12.6C7.07508 12.0396 7.02335 11.4756 7 10.91H13C12.973 11.518 12.927 12.09 12.855 12.6C11.913 12.4297 10.9572 12.3477 10 12.355V12.364ZM10 18.091C9.455 17.764 8.255 16.791 7.527 14.364C8.34439 14.2308 9.17192 14.1699 10 14.182C10.955 14.182 11.773 14.245 12.482 14.364C11.755 16.818 10.555 17.764 10.009 18.091H10ZM16.927 14.327C16.2369 13.7723 15.4556 13.3419 14.618 13.055C14.7276 12.3443 14.7944 11.6277 14.818 10.909H18.128C17.9908 12.1242 17.5796 13.2927 16.927 14.327ZM10 0C4.477 0 0 4.477 0 10C0 15.523 4.477 20 10 20C15.523 20 20 15.523 20 10C20 4.477 15.523 0 10 0Z" fill="#B3B3B3"/>
</svg>
