<svg width="20" height="21" viewBox="0 0 20 21" fill="none" xmlns="http://www.w3.org/2000/svg">
<path fill-rule="evenodd" clip-rule="evenodd" d="M19.1667 10.7499C19.1667 15.8125 15.0627 19.9166 10 19.9166C4.93743 19.9166 0.833374 15.8125 0.833374 10.7499C0.833374 5.68731 4.93743 1.58325 10 1.58325C15.0627 1.58325 19.1667 5.68731 19.1667 10.7499ZM10.3279 8.35049C9.43629 8.72133 7.65435 9.48889 4.98208 10.6532C4.54815 10.8257 4.32083 10.9945 4.30014 11.1596C4.26517 11.4386 4.61452 11.5484 5.09024 11.698C5.15495 11.7183 5.22199 11.7394 5.29073 11.7618C5.75876 11.9139 6.38835 12.0919 6.71565 12.099C7.01254 12.1054 7.3439 11.983 7.70974 11.7318C10.2065 10.0464 11.4954 9.1945 11.5763 9.17613C11.6334 9.16317 11.7125 9.14688 11.7661 9.19452C11.8197 9.24216 11.8144 9.33238 11.8087 9.35659C11.7741 9.50412 10.4028 10.779 9.69316 11.4388C9.47193 11.6445 9.315 11.7903 9.28292 11.8237C9.21106 11.8983 9.13782 11.9689 9.06743 12.0368C8.63261 12.4559 8.30654 12.7703 9.08548 13.2836C9.45981 13.5303 9.75935 13.7342 10.0582 13.9377C10.3845 14.16 10.71 14.3816 11.1312 14.6577C11.2385 14.7281 11.341 14.8011 11.4408 14.8723C11.8206 15.143 12.1618 15.3863 12.5833 15.3475C12.8283 15.3249 13.0813 15.0946 13.2098 14.4077C13.5134 12.7843 14.1104 9.26679 14.2483 7.81733C14.2604 7.69034 14.2452 7.52781 14.233 7.45647C14.2208 7.38512 14.1953 7.28347 14.1025 7.20822C13.9927 7.11911 13.8231 7.10031 13.7473 7.10165C13.4025 7.10772 12.8736 7.29165 10.3279 8.35049Z" fill="#E7E7E7"/>
</svg>
