<svg width="21" height="20" viewBox="0 0 21 20" fill="none" xmlns="http://www.w3.org/2000/svg">
<path fill-rule="evenodd" clip-rule="evenodd" d="M10.3102 0H10.3557C15.8644 0 20.33 4.46696 20.33 9.97723V10.0228C20.33 15.533 15.8644 20 10.3557 20H10.3102C4.80157 20 0.335938 15.533 0.335938 10.0228V9.97723C0.335938 4.46696 4.80157 0 10.3102 0ZM12.3973 4.49706C13.4291 4.67504 14.4154 4.98615 15.3358 5.40867L15.3351 5.40937C15.3435 5.41287 15.3498 5.41918 15.354 5.42689C16.9841 7.82607 17.7896 10.5322 17.4884 13.6475C17.487 13.6601 17.48 13.6727 17.4695 13.6804C16.2346 14.5878 15.0381 15.1385 13.8585 15.5036C13.8396 15.5092 13.8193 15.5022 13.8081 15.4861C13.5356 15.1063 13.2883 14.7062 13.0711 14.2865C13.0585 14.2613 13.0697 14.2318 13.0957 14.222C13.4893 14.0735 13.8634 13.8955 14.2228 13.6853C14.2515 13.6685 14.2529 13.6278 14.2269 13.6082C14.1506 13.5515 14.0749 13.4919 14.0028 13.4324C13.9895 13.4218 13.9713 13.419 13.9559 13.4267C11.6211 14.5058 9.06293 14.5058 6.70017 13.4267C6.68476 13.4197 6.66656 13.4218 6.65325 13.433C6.5811 13.4926 6.50545 13.5515 6.42979 13.6082C6.40388 13.6278 6.40596 13.6685 6.43469 13.6853C6.79474 13.8913 7.1681 14.0728 7.56108 14.222C7.5863 14.2318 7.59891 14.2613 7.58631 14.2858C7.37406 14.7069 7.12608 15.107 6.84869 15.4861C6.83678 15.5015 6.81717 15.5085 6.79825 15.5029C5.62423 15.1378 4.42778 14.5871 3.19281 13.6797C3.1823 13.672 3.1753 13.6594 3.1739 13.6461C2.92242 10.9512 3.43519 8.22267 5.30691 5.42548C5.31181 5.41778 5.31882 5.41217 5.32652 5.40867C6.24697 4.98615 7.23395 4.67504 8.26508 4.49706C8.28329 4.49426 8.3022 4.50267 8.312 4.51948C8.43949 4.74511 8.5852 5.03449 8.68397 5.27133C9.77113 5.10526 10.8751 5.10526 11.9847 5.27133C12.0827 5.0401 12.2235 4.74511 12.3503 4.51948C12.3594 4.50196 12.3784 4.49356 12.3973 4.49706ZM6.64064 10.5497C6.64064 11.352 7.22624 12.005 7.93794 12.005C8.66014 12.005 9.23525 11.352 9.23525 10.5497C9.24716 9.75369 8.66014 9.09433 7.93794 9.09433C7.21573 9.09433 6.64064 9.74738 6.64064 10.5497ZM11.4383 10.5497C11.4383 11.352 12.0239 12.005 12.7356 12.005C13.4641 12.005 14.0329 11.352 14.0329 10.5497C14.0448 9.75369 13.4578 9.09433 12.7356 9.09433C12.0134 9.09433 11.4383 9.74738 11.4383 10.5497Z" fill="#141416"/>
</svg>
