<svg width="20" height="20" viewBox="0 0 20 20" fill="none" xmlns="http://www.w3.org/2000/svg">
<path fill-rule="evenodd" clip-rule="evenodd" d="M9.97721 0H10.0228C15.5314 0 19.997 4.46696 19.997 9.97723V10.0228C19.997 15.533 15.5314 20 10.0228 20H9.97721C4.46856 20 0.00292969 15.533 0.00292969 10.0228V9.97723C0.00292969 4.46696 4.46856 0 9.97721 0ZM3.87267 9.61915C3.84535 9.63176 3.81732 9.64508 3.7893 9.65909L3.78792 9.65839C3.67233 9.71725 3.56236 9.78942 3.50562 9.90364C3.41525 10.0858 3.5014 10.3156 3.65131 10.4523C3.80121 10.5889 4.00155 10.6541 4.19559 10.7143C4.56054 10.8286 4.92691 10.9393 5.29397 11.0472C5.73178 11.1761 6.18709 11.3022 6.63961 11.2378C7.14537 11.1663 7.58527 10.8664 8.00487 10.5749C8.64766 10.1284 9.29028 9.6817 9.93289 9.235C10.576 8.78796 11.2192 8.34091 11.8625 7.89404C11.9647 7.82327 12.0936 7.74899 12.2057 7.80365C12.3941 7.89544 12.2863 8.18272 12.149 8.34178C11.7038 8.85795 11.1885 9.30811 10.6736 9.7579C10.0632 10.2912 9.45343 10.8239 8.96173 11.4655C8.85246 11.6077 8.74529 11.7675 8.74389 11.9469C8.74109 12.2447 9.01708 12.4591 9.26505 12.623C9.78657 12.9685 10.3083 13.3139 10.8299 13.6594C11.3516 14.0048 11.8733 14.3503 12.3948 14.6957C12.6463 14.8618 12.9027 15.0306 13.1934 15.1112C13.4841 15.1911 13.8189 15.1701 14.0543 14.9816C14.3324 14.7588 14.4052 14.372 14.4585 14.0195C14.8027 11.7574 15.1464 9.49473 15.49 7.23247L15.6297 6.31256C15.6857 5.944 15.7229 5.51377 15.4581 5.25171C15.4027 5.19635 15.3362 5.15221 15.264 5.12068C15.0553 5.03029 14.815 5.04711 14.5972 5.08845C14.5416 5.09896 14.4868 5.11358 14.4321 5.12817C14.3738 5.14372 14.3157 5.15924 14.2567 5.16973C14.1583 5.18698 14.0591 5.23439 13.9637 5.27999C13.9275 5.29734 13.8917 5.31442 13.8568 5.32949C13.5717 5.45141 13.2864 5.5735 13.0011 5.6956C12.7158 5.8177 12.4306 5.93979 12.1455 6.06172C11.8604 6.18364 11.5751 6.30573 11.2898 6.42783C11.0045 6.54992 10.7193 6.67202 10.4342 6.79394C10.1491 6.91586 9.86379 7.03796 9.57852 7.16006C9.29324 7.28215 9.00797 7.40425 8.72287 7.52617C8.43787 7.64805 8.15269 7.7701 7.86751 7.89216C7.58213 8.0143 7.29676 8.13644 7.01156 8.2584L6.15626 8.62486L5.72827 8.80775C5.68668 8.82587 5.64483 8.84376 5.60289 8.86169C5.5735 8.87425 5.54406 8.88684 5.51462 8.89954C5.49604 8.9076 5.47747 8.91549 5.45889 8.92338C5.44034 8.93126 5.42178 8.93913 5.40323 8.94719C5.39516 8.95041 5.38505 8.95584 5.37418 8.96168C5.35203 8.97357 5.32677 8.98713 5.30938 8.98713L5.28369 8.99814C4.81169 9.20048 4.33914 9.40305 3.87267 9.61915Z" fill="#141416"/>
</svg>
