<svg width="20" height="20" viewBox="0 0 20 20" fill="none" xmlns="http://www.w3.org/2000/svg">
<path fill-rule="evenodd" clip-rule="evenodd" d="M11.3915 19.904C16.2536 19.2264 19.9963 15.051 19.9963 10.0003H19.9977C19.9977 4.47745 15.5216 0 10.0003 0C4.47906 0 0.00292969 4.47745 0.00292969 10.0003C0.00292969 14.9774 3.63848 19.1059 8.39831 19.8725C8.91948 19.9566 9.45465 20 9.99963 20C10.4718 20 10.9369 19.9671 11.3915 19.904ZM8.66767 10.577L4.05704 4.41089H4.05774H7.61133L10.6339 8.45321L14.3746 4.41089H15.419L11.1005 9.07753L15.9703 15.5905H12.4167L9.1349 11.2013L5.07275 15.5905H4.02832L8.66767 10.577ZM7.22466 5.18025H5.59251L12.8013 14.8211H14.4334L7.22466 5.18025Z" fill="#141416"/>
</svg>
