<svg width="66" height="60" viewBox="0 0 66 60" fill="none" xmlns="http://www.w3.org/2000/svg">
<path fill-rule="evenodd" clip-rule="evenodd" d="M51.2168 11.7548L32.8906 1.17426L14.5636 11.7548V32.9165L32.8906 43.4978L51.2168 32.9166V11.7548ZM52.2337 33.5037V11.1676L32.8906 0L13.5466 11.1676V33.5037L32.8906 44.6721L52.2337 33.5037Z" fill="#CC2727"/>
<path d="M41.2693 11.7186L38.0041 9.83587L32.8561 6.86713L27.7767 9.81412L24.455 11.7412L19.3586 14.6986V20.6087V24.4306V30.3262L24.4841 33.2813L27.7767 35.1801V31.3711V25.4626V19.5469L32.869 16.5927L38.0041 13.6127V19.5534V25.4377L32.8843 28.408L38.0041 31.3598L41.2983 33.2587L46.4229 30.2859V24.4081V20.5531V14.6906L41.2693 11.7186Z" fill="#CC2727"/>
<path d="M8.80955 54.2284C9.0464 54.0511 9.16483 53.7957 9.16483 53.4622C9.16483 53.1657 9.05043 52.9224 8.82163 52.7331C8.59283 52.5438 8.32617 52.4487 8.02164 52.4487H3.10248V59.9145H0V49.965H8.25044C8.95053 49.965 9.53381 50.0157 9.99946 50.1164C10.4651 50.2171 10.8454 50.3839 11.1394 50.6167C11.4343 50.8495 11.651 51.1645 11.7912 51.5625C11.9314 51.9605 12.0014 52.4616 12.0014 53.0674C12.0014 53.6733 11.9459 54.1832 11.8347 54.5973C11.7235 55.0114 11.5503 55.345 11.3159 55.5987C11.0814 55.8517 10.7672 56.0378 10.3733 56.1546C9.98013 56.2722 9.48869 56.331 8.89897 56.331V56.3866L12.9593 59.9153H9.51689L3.52865 54.495H7.98458C8.29717 54.4942 8.57269 54.4056 8.80955 54.2284Z" fill="#CC2727"/>
<path d="M24.5718 57.5967V59.9145H16.9393H13.8803H13.6636V49.965H13.7868H16.9385H24.571V52.2699H16.7652V53.9383H24.0949V55.9532H16.7652V57.5967H24.5718Z" fill="#CC2727"/>
<path d="M25.7454 59.9145H25.6592V49.965C30.4011 49.965 33.6293 49.965 35.3436 49.965C36.4393 49.965 37.253 50.1962 37.7847 50.657C38.3164 51.1186 38.5823 51.7921 38.5823 52.6775C38.5823 52.7025 38.5823 53.1778 38.5823 54.1051V55.7615C38.5823 56.7008 38.5823 57.1826 38.5823 57.2076C38.5823 58.0938 38.3164 58.7656 37.7847 59.2257C37.253 59.6849 36.4393 59.9145 35.3436 59.9145H28.7125H25.7454ZM28.582 57.5596H34.9964C35.3009 57.5596 35.5241 57.5073 35.6643 57.4017C35.8045 57.297 35.8745 57.16 35.8745 56.9908V56.1562V54.976V53.7087V52.9297C35.8745 52.7605 35.8045 52.6227 35.6643 52.5156C35.5241 52.4084 35.3017 52.3553 34.9964 52.3553C34.5348 52.3553 32.3967 52.3553 28.582 52.3553H28.5449V57.5588H28.582V57.5596Z" fill="white"/>
<path d="M42.6925 58.221L41.7652 59.9145H38.3228L43.7801 49.965H47.7534L53.1544 59.9145H49.7119L48.8032 58.221H42.6925ZM43.8171 56.0765H47.6608L45.7386 52.4979L43.8171 56.0765Z" fill="white"/>
<path d="M52.9153 52.4978C52.9153 52.0942 52.962 51.7591 53.0547 51.494C53.1473 51.2281 53.3197 50.98 53.5711 50.7496C53.7934 50.5313 54.0399 50.3637 54.3098 50.2461C54.5797 50.1285 54.9189 50.0447 55.3265 49.9931C55.7342 49.9416 56.2256 49.9093 56.8 49.8973C57.3744 49.8852 58.2614 49.8787 59.4602 49.8787C60.659 49.8787 61.5452 49.8852 62.118 49.8973C62.6908 49.9093 63.1782 49.9416 63.5794 49.9931C63.9806 50.0447 64.3149 50.1293 64.5808 50.2461C64.8466 50.3637 65.0883 50.5313 65.3067 50.7496C65.558 50.9808 65.7296 51.229 65.8231 51.494C65.9157 51.7599 65.9624 52.0942 65.9624 52.4978V53.9375C65.9624 55.2474 65.9624 56.3826 65.9624 57.3429C65.9624 57.7505 65.9157 58.0937 65.8231 58.3717C65.7304 58.6496 65.558 58.9026 65.3067 59.1289C65.0883 59.3392 64.8418 59.502 64.5679 59.6172C64.294 59.7324 63.9516 59.817 63.5423 59.8701C63.1323 59.9233 62.6279 59.9587 62.0286 59.9749C61.4292 59.991 60.5607 59.9998 59.424 59.9998C58.2824 59.9998 57.4163 59.9918 56.825 59.9749C56.2337 59.9579 55.7318 59.9233 55.3201 59.8701C54.9084 59.817 54.5717 59.7324 54.3098 59.6172C54.048 59.502 53.8023 59.3392 53.5711 59.1289C53.3197 58.9026 53.1481 58.6496 53.0547 58.3717C52.962 58.0937 52.9153 57.7505 52.9153 57.3429V52.4978ZM55.7148 56.9538C55.7148 57.164 55.7777 57.309 55.9034 57.3896C56.029 57.4702 56.2691 57.5104 56.6236 57.5104C57.0892 57.5104 58.9656 57.5104 62.2533 57.5104C62.5828 57.5104 62.8261 57.4581 62.9824 57.3525C63.1387 57.2478 63.2177 57.1149 63.2177 56.9538V55.8106V52.9304C63.2177 52.6912 63.1524 52.53 63.0227 52.4455C62.893 52.3609 62.6505 52.319 62.2968 52.319C61.8312 52.319 59.9404 52.319 56.6236 52.319C56.2941 52.319 56.0605 52.3738 55.9219 52.4825C55.7841 52.5921 55.7148 52.7411 55.7148 52.9304V56.9538Z" fill="white"/>
</svg>
